<svg xmlns="http://www.w3.org/2000/svg" viewBox="0 0 500 500"><g id="freepik--background-complete--inject-13"><rect y="382.4" width="500" height="0.25" style="fill:#ebebeb"></rect><rect x="435" y="398.49" width="14.9" height="0.25" style="fill:#ebebeb"></rect><rect x="322.53" y="401.21" width="8.69" height="0.25" style="fill:#ebebeb"></rect><rect x="396.59" y="389.21" width="34.19" height="0.25" style="fill:#ebebeb"></rect><rect x="66.44" y="394.37" width="43.19" height="0.25" style="fill:#ebebeb"></rect><rect x="118.53" y="394.37" width="15.58" height="0.25" style="fill:#ebebeb"></rect><rect x="161.08" y="391.01" width="93.68" height="0.25" style="fill:#ebebeb"></rect><path d="M237,337.8H43.91a5.71,5.71,0,0,1-5.7-5.71V60.66A5.71,5.71,0,0,1,43.91,55H237a5.71,5.71,0,0,1,5.71,5.71V332.09A5.71,5.71,0,0,1,237,337.8ZM43.91,55.2a5.46,5.46,0,0,0-5.45,5.46V332.09a5.46,5.46,0,0,0,5.45,5.46H237a5.47,5.47,0,0,0,5.46-5.46V60.66A5.47,5.47,0,0,0,237,55.2Z" style="fill:#ebebeb"></path><path d="M453.31,337.8H260.21a5.72,5.72,0,0,1-5.71-5.71V60.66A5.72,5.72,0,0,1,260.21,55h193.1A5.71,5.71,0,0,1,459,60.66V332.09A5.71,5.71,0,0,1,453.31,337.8ZM260.21,55.2a5.47,5.47,0,0,0-5.46,5.46V332.09a5.47,5.47,0,0,0,5.46,5.46h193.1a5.47,5.47,0,0,0,5.46-5.46V60.66a5.47,5.47,0,0,0-5.46-5.46Z" style="fill:#ebebeb"></path><path d="M428.78,357.22c-27.9-7.46-62.48.45-136.22,6.45s-54.67-38.67-138.89-34S18.5,382.4,18.5,382.4H469.58S465.47,367,428.78,357.22Z" style="fill:#fafafa"></path><circle cx="377.33" cy="244" r="36.33" style="fill:#f5f5f5"></circle><circle cx="351.35" cy="276.33" r="36.33" transform="translate(22.3 578.88) rotate(-80.78)" style="fill:#f5f5f5"></circle><circle cx="386.84" cy="275.75" r="22.51" transform="translate(-81.68 354.3) rotate(-45)" style="fill:#f5f5f5"></circle><circle cx="338.35" cy="207.67" r="30.54" style="fill:#f5f5f5"></circle><circle cx="134.11" cy="207.67" r="36.33" transform="translate(-76.17 337.63) rotate(-88.86)" style="fill:#f5f5f5"></circle><circle cx="167.43" cy="227.1" r="36.33" transform="translate(-114.66 232.91) rotate(-54.78)" style="fill:#f5f5f5"></circle><circle cx="100.55" cy="221.31" r="30.54" transform="translate(-76.67 54.94) rotate(-22.37)" style="fill:#f5f5f5"></circle><polygon points="51.93 243.23 66.13 243.23 62.09 233.44 51.93 243.23" style="fill:#e0e0e0"></polygon><polygon points="168.45 235.89 108.65 203.15 60.33 235.89 60.33 382.4 168.45 382.4 168.45 235.89" style="fill:#f0f0f0"></polygon><rect x="168.45" y="235.89" width="197.3" height="146.51" transform="translate(534.2 618.29) rotate(180)" style="fill:#e6e6e6"></rect><polygon points="168.45 235.89 365.75 235.89 365.75 251.19 168.45 253.7 168.45 235.89" style="fill:#e0e0e0"></polygon><rect x="78.61" y="281.47" width="60.08" height="100.93" style="fill:#e0e0e0"></rect><rect x="73.31" y="284.74" width="10.6" height="97.66" style="fill:#fafafa"></rect><rect x="83.91" y="284.74" width="1.32" height="97.66" transform="translate(169.14 667.14) rotate(180)" style="fill:#e6e6e6"></rect><rect x="143.99" y="284.74" width="1.32" height="97.66" transform="translate(289.3 667.14) rotate(180)" style="fill:#e6e6e6"></rect><rect x="133.39" y="284.74" width="10.6" height="97.66" style="fill:#fafafa"></rect><rect x="103.16" y="242.12" width="10.6" height="78.71" transform="translate(386.04 163.39) rotate(88.03)" style="fill:#fafafa"></rect><rect x="143.12" y="279.47" width="10.6" height="1.25" transform="translate(423.25 122.13) rotate(88.03)" style="fill:#e6e6e6"></rect><polygon points="108.65 199.39 108.65 205.6 173.84 243.23 177.61 238.52 108.65 199.39" style="fill:#fafafa"></polygon><polygon points="108.65 199.39 108.65 205.6 51.93 243.23 48.17 238.52 108.65 199.39" style="fill:#fafafa"></polygon><polygon points="371.61 238.52 371.61 244.73 173.84 243.23 177.61 238.52 371.61 238.52" style="fill:#fafafa"></polygon><polygon points="108.65 199.39 317.68 199.39 371.61 238.52 177.61 238.52 108.65 199.39" style="fill:#ebebeb"></polygon><polygon points="237.89 323 233.56 320.78 228.33 323 228.33 382.4 237.89 382.4 237.89 323" style="fill:#f5f5f5"></polygon><polygon points="306.11 323 301.78 320.78 296.56 323 296.56 382.4 306.11 382.4 306.11 323" style="fill:#f5f5f5"></polygon><polygon points="391.44 323 387.11 320.78 381.89 323 381.89 382.4 391.44 382.4 391.44 323" style="fill:#f5f5f5"></polygon><polygon points="448.67 323 444.33 320.78 439.11 323 439.11 382.4 448.67 382.4 448.67 323" style="fill:#f5f5f5"></polygon><rect x="221.43" y="333.84" width="89.11" height="8.1" transform="translate(-17.1 14.19) rotate(-2.96)" style="fill:#f5f5f5"></rect><rect x="377.27" y="334.16" width="76.62" height="8.1" transform="translate(-16.92 21.92) rotate(-2.96)" style="fill:#f5f5f5"></rect><rect x="302.87" y="337.47" width="96.95" height="8.1" transform="translate(10.76 -10.74) rotate(1.78)" style="fill:#f5f5f5"></rect><path d="M410.29,141.92c-4.7-8.29-12.58-14.2-19.92-14.2a11.21,11.21,0,0,0-10.21,6.11,13.69,13.69,0,0,0-8.45-3.45c-5,0-8.2,4-8.39,9.63a19,19,0,0,0-7.64-2.15c-5-.26-8.71,2-10.29,5.77a6.92,6.92,0,0,0-3.22-1.07c-2.9-.15-4.49,2.17-3.56,5.17.06.19.13.37.2.55h81.13C419.77,145.34,413.89,142.07,410.29,141.92Z" style="fill:#fafafa"></path><circle cx="184.03" cy="117.66" r="48.71" style="fill:#f0f0f0"></circle><path d="M311.52,104.63c-7.55-13.31-20.18-22.79-32-22.79a18,18,0,0,0-16.38,9.8c-4.22-3.46-9-5.53-13.56-5.53-8,0-13.17,6.41-13.46,15.45a30.83,30.83,0,0,0-12.27-3.45c-8.07-.41-14,3.28-16.51,9.27a11,11,0,0,0-5.17-1.73c-4.65-.23-7.2,3.49-5.71,8.3.1.3.21.59.31.88H327C326.73,110.12,317.3,104.86,311.52,104.63Z" style="fill:#fafafa"></path><path d="M157.58,143.87a5.14,5.14,0,0,0-.66-.05c-2.39-3-5.15-4.91-7.52-4.91a3.86,3.86,0,0,0-3.66,2.69c-4.39-5.82-9.61-9.6-14.06-9.6-3.59,0-6,2.46-7.06,6.47-2.36-2.28-4.86-3.65-7.08-3.65-3.9,0-5.82,4.23-5.13,10.2h0a13.75,13.75,0,0,0-6.27-2.29c-3.95-.27-6.48,2.16-7.16,6.12a5.12,5.12,0,0,0-2.67-1.13c-2.16-.15-3.09,2-2.2,4.95h74.32C166.36,148.25,161.64,144.37,157.58,143.87Z" style="fill:#fafafa"></path><path d="M436.12,97.63l-.37,0c-1.38-1.73-3-2.83-4.34-2.83a2.23,2.23,0,0,0-2.1,1.55c-2.52-3.35-5.53-5.53-8.09-5.53-2.07,0-3.47,1.42-4.06,3.73a6.32,6.32,0,0,0-4.08-2.1c-2.25,0-3.35,2.43-3,5.86h0A7.88,7.88,0,0,0,406.51,97c-2.27-.16-3.73,1.24-4.12,3.52a3,3,0,0,0-1.54-.65c-1.24-.09-1.77,1.17-1.26,2.85h42.78C441.18,100.15,438.46,97.92,436.12,97.63Z" style="fill:#f5f5f5"></path></g><g id="freepik--Shadow--inject-13"><ellipse id="freepik--path--inject-13" cx="250" cy="416.24" rx="193.89" ry="11.32" style="fill:#f5f5f5"></ellipse></g><g id="freepik--Character--inject-13"><path d="M301.74,99.78a63.47,63.47,0,0,1-5.46-3.84,3.85,3.85,0,0,0-.55-1c1.11.4,2.27.86,3.41,1.38a.2.2,0,0,0,.11,0,.29.29,0,0,0,.26-.16.3.3,0,0,0-.14-.38c-1.46-.65-2.95-1.23-4.32-1.71-5.72-6.71-14.71-13.88-20.07-13.18-.78-.39-1.58-.81-2.37-1.25a.27.27,0,0,0-.38.1.29.29,0,0,0,.1.39c.59.33,1.18.65,1.77,1a6.88,6.88,0,0,0-1.2.54l-.67-.1c-1-.57-2-1.2-2.92-1.87a.28.28,0,0,0-.39.07.29.29,0,0,0,.07.4c.61.42,1.22.82,1.84,1.2l-1.15-.13a.3.3,0,0,0-.31.25.29.29,0,0,0,.26.31s1,.1,2.41.31l.09,0c-3.85,2.63-8.63,8.84-10.95,12.5,4.9,9.78,29.72,15.15,29.72,15.15s.6-4.69,4.84-10.3A3.66,3.66,0,0,0,296,99c.94.77,1.55,1.22,1.56,1.24a.34.34,0,0,0,.17,0,.3.3,0,0,0,.23-.11.29.29,0,0,0-.06-.4s-.66-.49-1.66-1.31a3.64,3.64,0,0,0,.22-1.7c2.7,2.07,5,3.45,5,3.47a.28.28,0,0,0,.15,0,.27.27,0,0,0,.24-.13A.29.29,0,0,0,301.74,99.78Z" style="fill:#92E3A9"></path><path d="M311.51,110.38c1,.2,1.67.3,1.69.3h0a.28.28,0,0,0,.28-.24.28.28,0,0,0-.24-.32s-1.06-.17-2.63-.5c-.28-.23-.57-.45-.87-.68,1.12,0,2.28-.06,3.45,0h0a.28.28,0,0,0,.28-.28.29.29,0,0,0-.27-.29c-1.43,0-2.86,0-4.19.07-.48-.34-1-.66-1.5-1,2.94.44,5.13.58,5.16.58h0a.28.28,0,0,0,.28-.26.28.28,0,0,0-.26-.3,65.6,65.6,0,0,1-6.62-.83,23.75,23.75,0,0,0-5.58-2.1c-14.34-3.28-28.2-12.69-37.91-14.7-3.56-.73-8.43-1.83-13.1-2.73a60.27,60.27,0,0,1-7.12-3.53.28.28,0,0,0-.39.1.28.28,0,0,0,.1.38c1,.57,1.93,1.09,2.87,1.57-2-.52-3.92-.89-5.35-1.13-.95-.59-1.93-1.23-2.89-1.92a.28.28,0,0,0-.39.06.3.3,0,0,0,.06.4c.6.43,1.21.84,1.82,1.24-.71-.11-1.13-.16-1.15-.16a.28.28,0,1,0-.06.56s1,.12,2.4.36c.37.23.73.45,1.08.65-3.77-.36-6.23-.11-5.71,1.36,1.1,3.15,7.94,7.06,16.45,9.06-1.43-.06-3-.17-4.56-.37a.29.29,0,0,0-.31.25.28.28,0,0,0,.24.31,58.36,58.36,0,0,0,7.3.42h.39c1.13.19,2.27.36,3.44.48,11.31,1.12,32.34,19.77,45.64,23.32C319.24,124.74,318.42,116.65,311.51,110.38Z" style="fill:#92E3A9"></path><path d="M311.51,110.38c1,.2,1.67.3,1.69.3h0a.28.28,0,0,0,.28-.24.28.28,0,0,0-.24-.32s-1.06-.17-2.63-.5c-.28-.23-.57-.45-.87-.68,1.12,0,2.28-.06,3.45,0h0a.28.28,0,0,0,.28-.28.29.29,0,0,0-.27-.29c-1.43,0-2.86,0-4.19.07-.48-.34-1-.66-1.5-1,2.94.44,5.13.58,5.16.58h0a.28.28,0,0,0,.28-.26.28.28,0,0,0-.26-.3,65.6,65.6,0,0,1-6.62-.83,23.75,23.75,0,0,0-5.58-2.1c-14.34-3.28-28.2-12.69-37.91-14.7-3.56-.73-8.43-1.83-13.1-2.73a60.27,60.27,0,0,1-7.12-3.53.28.28,0,0,0-.39.1.28.28,0,0,0,.1.38c1,.57,1.93,1.09,2.87,1.57-2-.52-3.92-.89-5.35-1.13-.95-.59-1.93-1.23-2.89-1.92a.28.28,0,0,0-.39.06.3.3,0,0,0,.06.4c.6.43,1.21.84,1.82,1.24-.71-.11-1.13-.16-1.15-.16a.28.28,0,1,0-.06.56s1,.12,2.4.36c.37.23.73.45,1.08.65-3.77-.36-6.23-.11-5.71,1.36,1.1,3.15,7.94,7.06,16.45,9.06-1.43-.06-3-.17-4.56-.37a.29.29,0,0,0-.31.25.28.28,0,0,0,.24.31,58.36,58.36,0,0,0,7.3.42h.39c1.13.19,2.27.36,3.44.48,11.31,1.12,32.34,19.77,45.64,23.32C319.24,124.74,318.42,116.65,311.51,110.38Z" style="opacity:0.30000000000000004"></path><path d="M253.38,176.23l-.54.86-.48.71-.93,1.36c-.62.89-1.27,1.74-1.91,2.59-1.29,1.71-2.66,3.32-4.07,4.93s-2.9,3.14-4.44,4.66-3.15,3-4.87,4.4-3.47,2.78-5.35,4.08a64.06,64.06,0,0,1-6,3.61,51,51,0,0,1-6.7,3,46.92,46.92,0,0,1-7.51,1.93l-1.2.21a6.4,6.4,0,0,1-2.14,0,64.7,64.7,0,0,1-8.47-2.06,83.11,83.11,0,0,1-7.8-2.93c-1.25-.56-2.49-1.13-3.71-1.73s-2.41-1.26-3.6-1.91-2.34-1.37-3.49-2.1-2.24-1.48-3.45-2.37a6.43,6.43,0,0,1,4-11.61l.73,0c1.13,0,2.41.2,3.62.29l3.65.37,3.61.35c1.19.13,2.38.23,3.55.33,2.35.25,4.67.36,6.91.49s4.42.15,6.48.13L206,186a29.27,29.27,0,0,0,6.74-3.44,42.12,42.12,0,0,0,3.47-2.62c1.17-.92,2.32-2,3.46-3,2.25-2.17,4.5-4.52,6.63-7,1.07-1.23,2.1-2.53,3.13-3.8l1.5-1.93,1.3-1.72.47-.62a12.62,12.62,0,0,1,20.72,14.39Z" style="fill:#ffc3bd"></path><path d="M265,155.81c-3.06,27.12-40.4,50.07-40.4,50.07-7.92-.87-15.72-14-16.84-22.56,0,0,22.92-32.07,34.54-38.41C253,139,266.34,143.46,265,155.81Z" style="fill:#263238"></path><path d="M210.21,178.35c-2.37,2.28-4.1,4-4.09,6.59.88,2.44,6.51,20.32,10.3,22.8s9.46-.81,14.32-4.31C231.12,193.83,216.51,188.74,210.21,178.35Z" style="fill:#263238"></path><path d="M210.21,178.35c-2.37,2.28-4.1,4-4.09,6.59.88,2.44,6.51,20.32,10.3,22.8s9.46-.81,14.32-4.31C231.12,193.83,216.51,188.74,210.21,178.35Z" style="fill:#fff;opacity:0.2"></path><path d="M182.21,184.47l.37,7.28c-2.35,7.3-11.21,2.65-11.21,2.65l-5.16-.51a3.88,3.88,0,0,1-3.24-3.82l-.29-5.09a4,4,0,0,1,3.41-4.47l4.52-.29a8.08,8.08,0,0,1,3.82.7Z" style="fill:#ffc3bd"></path><path d="M252.21,140.23a218.23,218.23,0,0,1,48.14.76c9.23,1.3,15.75,7,14.63,26-2.27,38.36-3.61,68.82-8.49,82.61,0,0-61.09,19.35-81.33-.15-4.93-46.18,6.56-84,14.12-100A16.15,16.15,0,0,1,252.21,140.23Z" style="fill:#263238"></path><path d="M255.57,201.44a.28.28,0,0,1-.28-.24c-.35-2.29.54-4.82,1.32-7.06a17.09,17.09,0,0,0,1.07-4c.06-1,0-2.07,0-3.06a15.38,15.38,0,0,1,.39-4.95l.29-.91c.58-1.79,1-3.09.57-4.42-.29-.89.29-2.9.91-5,.55-1.9,1.17-4.06.9-4.77-.64-1.69-.69-3.17.79-6.6a9.68,9.68,0,0,0,.61-4.68,6.31,6.31,0,0,1,.48-3.51.27.27,0,0,1,.38-.11.28.28,0,0,1,.11.38,5.73,5.73,0,0,0-.4,3.21,10.26,10.26,0,0,1-.66,4.94c-1.41,3.26-1.38,4.59-.78,6.17.34.88-.26,3-.89,5.13-.54,1.86-1.15,4-.91,4.69.49,1.51,0,2.95-.57,4.78-.1.29-.19.59-.29.9a14.73,14.73,0,0,0-.36,4.77c0,1,.05,2,0,3.1a17.45,17.45,0,0,1-1.11,4.17c-.76,2.17-1.62,4.64-1.29,6.78a.28.28,0,0,1-.24.32Z" style="fill:#fff;opacity:0.2"></path><path d="M257.74,329.3c6.73-25.94,24.31-56.86,13.19-81.83l-48.31-.15s-1.2,51.41-1.53,75.67c-.35,25.22,1.82,56.6,1.82,56.6l19.77,1.5S256.16,358.41,257.74,329.3Z" style="fill:#92E3A9"></path><path d="M243.61,381.87l-21.36-1.57a.75.75,0,0,1-.7-.7l-.46-7.92a.75.75,0,0,1,.85-.79L245.63,374a.74.74,0,0,1,.62.95l-1.87,6.34A.75.75,0,0,1,243.61,381.87Z" style="fill:#263238"></path><path d="M271.1,272a129.45,129.45,0,0,1-.74,18.36c-2.36,8.16-5.38,16.33-8.08,24.25C258.73,292.22,258.72,266.07,271.1,272Z" style="opacity:0.2"></path><path d="M308.37,320.91c2.34-26.23,11-61.53,2.63-73.59H253.18s11.51,52.28,16.24,76.47c4.91,25.16,19,57.18,19,57.18l18.73,0S314.32,350.83,308.37,320.91Z" style="fill:#92E3A9"></path><path d="M308.48,381.73H287.26a.73.73,0,0,1-.71-.59l-1.39-7.53a.78.78,0,0,1,.79-.91l23.09,1a.73.73,0,0,1,.69.78l-.48,6.51A.78.78,0,0,1,308.48,381.73Z" style="fill:#263238"></path><path d="M257.54,144.42c1.84-1.8,3.77-.75,4.66-3.47a9.43,9.43,0,0,0-1-6.25l21.9-11.82c-.43,8.06-.75,14.42,2.82,17.63,1,6-9.14,11.05-22.28,10.42C257.46,150.64,254.89,147,257.54,144.42Z" style="fill:#ffc3bd"></path><path d="M261.51,135.38l17.3-4.32c-4.37,6.87-12.25,10.64-16.48,9A9.31,9.31,0,0,0,261.51,135.38Z" style="opacity:0.2"></path><path d="M260.56,99.1a77.94,77.94,0,0,0-7.25,6,4.38,4.38,0,0,0,2.56,0c-2.16,3.76-1.32,8.91-.23,10.44C261,110.51,260.56,99.1,260.56,99.1Z" style="fill:#263238"></path><path d="M268.67,95.94c8.38.83,20.14,8.27,19.11,17.33-1.19,10.53-4,17.36-11.12,20.89-14.25,7-21.2.25-22.36-10.59C253.25,113.82,256.83,94.78,268.67,95.94Z" style="fill:#ffc3bd"></path><path d="M283,102.62c.55,4.53-.1,8.94-2.52,10.17,3.26.1,4.43-.54,4.43-.54s-5.79,4.4-1.91,7.22a26.08,26.08,0,0,0,7.45-6.85S289.71,106.78,283,102.62Z" style="fill:#263238"></path><path d="M272.69,112.74a5.25,5.25,0,0,1,4,.29A10.29,10.29,0,0,1,272.69,112.74Z" style="opacity:0.2"></path><path d="M272.69,113.7a4.29,4.29,0,0,1,3.43,1.15A8.35,8.35,0,0,1,272.69,113.7Z" style="opacity:0.2"></path><path d="M265.92,124a9.25,9.25,0,0,1-1.44-.11.29.29,0,0,1-.24-.32.28.28,0,0,1,.33-.24,7.7,7.7,0,0,0,6.67-2.05.29.29,0,0,1,.41,0,.29.29,0,0,1,0,.4A8,8,0,0,1,265.92,124Z" style="fill:#263238"></path><path d="M290.39,122.54a9.38,9.38,0,0,1-6.16,3.7c-3.28.45-4.51-2.59-3.25-5.45,1.13-2.58,4.19-5.93,7.32-5.07S292.17,120.06,290.39,122.54Z" style="fill:#ffc3bd"></path><path d="M254.32,116.08c-1.58,6.7-3.7,12.47-1.76,15a6.64,6.64,0,0,1,.87-1.29,10.4,10.4,0,0,0,4.7,8.19,7.51,7.51,0,0,0,.32-1.88s4.45,2.53,14.24.41a3.13,3.13,0,0,0-.53,2.53,12.92,12.92,0,0,0,9.57-14.47,11.49,11.49,0,0,1,1.48-7.36s-1.43-1.34-3.12.92-3.25,12.93-8.35,11.41c-4.37-1.3-6.17-1.88-8.8.11-3.12-2.82-6.27-4.15-7.45-3.35C254.37,124.78,254.2,119.38,254.32,116.08Z" style="fill:#263238"></path><path d="M273.13,135.74c-1.41,1.55-6.21,2.9-8.31,3.12a5.35,5.35,0,0,0,1.6-2.48Z" style="fill:#263238"></path><path d="M270.84,113c-.06.92-.6,1.63-1.21,1.59s-1-.83-1-1.76.6-1.63,1.21-1.58S270.9,112.07,270.84,113Z" style="fill:#263238"></path><ellipse cx="258.91" cy="112.25" rx="1.67" ry="1.1" transform="translate(131.29 363.95) rotate(-86.55)" style="fill:#263238"></ellipse><path d="M262.38,113.24l.05,7.77s-2.5.62-4-.74A15.84,15.84,0,0,1,262.38,113.24Z" style="fill:#ed847e"></path><path d="M272.49,110.64a.67.67,0,0,0,.28,0,.53.53,0,0,0,.32-.69,5.47,5.47,0,0,0-3.55-3.49.54.54,0,0,0-.66.4.56.56,0,0,0,.41.66h0a4.32,4.32,0,0,1,2.78,2.79A.58.58,0,0,0,272.49,110.64Z" style="fill:#263238"></path><path d="M254.46,108.5a.55.55,0,0,0,.45-.25,4.24,4.24,0,0,1,3.31-2.09.55.55,0,0,0,.53-.56.56.56,0,0,0-.56-.53,5.34,5.34,0,0,0-4.2,2.59.55.55,0,0,0,.17.75A.58.58,0,0,0,254.46,108.5Z" style="fill:#263238"></path><path d="M311,247.32a84.36,84.36,0,0,0,2-16.63,5.35,5.35,0,0,0-2.87-4.93A27.07,27.07,0,0,1,296,203.39a6.32,6.32,0,0,0-4.12-5.57c-17.95-6.49-43.43-5.12-54-2.92a6.23,6.23,0,0,0-5,5.71c-.53,8.44-2.45,21.35-7.61,24.14a5.63,5.63,0,0,0-3,3.84c-1.72,9.15.4,18.73.4,18.73S255.41,252.85,311,247.32Z" style="fill:#92E3A9"></path><path d="M259.07,214.48H259c-.48-.11-11.58-2.76-15.15-9.12a.29.29,0,0,1,0-.27.31.31,0,0,1,.22-.15c7.83-.88,29.77-.3,36.76,1.78a.31.31,0,0,1,.2.23.31.31,0,0,1-.12.28c-6.69,4.75-21.64,7.23-21.79,7.25Zm-14.5-9c3.55,5.66,13.68,8.25,14.51,8.46,1-.17,14.42-2.5,21-6.82C272.73,205.19,252.48,204.66,244.57,205.45Z" style="opacity:0.2"></path><path d="M259.47,231.6h-.26c-8.47,0-13.19-1.14-15.31-3.7s-1.43-6.54-.48-11.48a75.31,75.31,0,0,0,1.21-7.95.3.3,0,0,1,.31-.26.27.27,0,0,1,.25.3,73.13,73.13,0,0,1-1.22,8c-.92,4.8-1.65,8.58.37,11s6.58,3.49,14.87,3.49h.26c9.47,0,14.7,0,17.33-2.84s2.68-8.45,2-18.67a.29.29,0,0,1,.26-.3.3.3,0,0,1,.31.26c.73,10.61.6,16.17-2.13,19.1S269.1,231.6,259.47,231.6Z" style="opacity:0.2"></path><circle cx="259.21" cy="210.43" r="1.13" style="fill:#fff"></circle><path d="M245.46,189.64l-7,.54a1.78,1.78,0,0,1-1.9-1.63h0a1.77,1.77,0,0,1,1.63-1.89l7-.53a1.75,1.75,0,0,1,1.89,1.62h0A1.76,1.76,0,0,1,245.46,189.64Z" style="fill:#fff"></path><path d="M239.55,194.8l.2-7.94a2.28,2.28,0,0,1,2-2.17h0a1.75,1.75,0,0,1,1.92,1.83l-.21,7.94a2.27,2.27,0,0,1-2,2.17h0A1.74,1.74,0,0,1,239.55,194.8Z" style="fill:#fff"></path><path d="M250.45,140.14c-2.25,2.71-11,15.08-11.64,47.86a.47.47,0,0,0,.43.49,31.42,31.42,0,0,0,4.73-.26.46.46,0,0,0,.41-.46c0-3.62.48-30.61,11.12-47.8a.47.47,0,0,0-.42-.71,15.88,15.88,0,0,0-4.43.75A.44.44,0,0,0,250.45,140.14Z" style="fill:#92E3A9"></path><path d="M262.94,150.88c3.95-.49,7.22-4.21,7.22-4.21s10.41-2.56,13.26-7.62a2.36,2.36,0,0,1,3.07-1,12.88,12.88,0,0,1,3.07,1.8S282.7,157.21,262.94,150.88Z" style="fill:#263238"></path><path d="M270.16,146.67s3.82,4.5,3.67,10c9.5-3.9,16.42-13.51,16.7-17.45-4-2.81-6.43-2.24-6.43-2.24S278.61,144.19,270.16,146.67Z" style="fill:#92E3A9"></path><path d="M262.94,150.88c-1.41-1.13-1.33-3.73-.51-4.42-.34-2.28,0-3.48-.07-7-3.58-.23-6.72,3.74-7.85,6.47S260.53,151.45,262.94,150.88Z" style="fill:#263238"></path><path d="M262.43,146.46c-2.54,1.24-4.91,5.69-4.38,8.39-4.08-2.73-4.39-12,.69-15.36,1.22-.63,3.62,0,3.62,0S262.92,144.36,262.43,146.46Z" style="fill:#92E3A9"></path><path d="M266.09,164.19c-.17,1-.72,1.79-1.23,1.7s-.78-1-.61-2,.72-1.79,1.23-1.7S266.26,163.16,266.09,164.19Z" style="fill:#fff"></path><path d="M264.53,175.28c-.07,1-.55,1.85-1.07,1.81s-.86-.91-.79-2,.56-1.84,1.08-1.8S264.61,174.25,264.53,175.28Z" style="fill:#fff"></path><path d="M262.86,187.21c-.08,1-.56,1.85-1.07,1.81s-.87-.91-.79-2,.56-1.84,1.07-1.81S262.94,186.18,262.86,187.21Z" style="fill:#fff"></path><path d="M321.63,157.78l.71.72.59.62,1.12,1.21c.73.81,1.42,1.63,2.1,2.45,1.38,1.63,2.65,3.33,3.9,5.06s2.42,3.53,3.56,5.37,2.21,3.74,3.2,5.72,1.94,4,2.78,6.13a65.34,65.34,0,0,1,2.19,6.64,51.1,51.1,0,0,1,1.42,7.19,44.33,44.33,0,0,1,.23,7.76l-.08,1.25a6.74,6.74,0,0,1-.48,2.06,42.51,42.51,0,0,1-4.52,8.21,47.24,47.24,0,0,1-5.65,6.66,53.9,53.9,0,0,1-6.42,5.37c-1.12.8-2.28,1.53-3.46,2.24-.6.35-1.2.69-1.81,1l-2,1a5.92,5.92,0,0,1-8.45-6.51l.69-3.32a3.72,3.72,0,0,1,.34-.64l.42-.7.86-1.43c.59-.94,1.13-1.91,1.68-2.86s1.06-1.9,1.57-2.84,1-1.87,1.42-2.81a40.32,40.32,0,0,0,3.6-10.46l-.56,3.3a25.09,25.09,0,0,0-.62-3.52,35.58,35.58,0,0,0-1.21-3.82c-.49-1.3-1.11-2.63-1.77-4s-1.4-2.7-2.19-4c-1.61-2.68-3.4-5.39-5.36-8-1-1.33-2-2.62-3-3.91L304.87,177l-1.38-1.64-.51-.61a12.63,12.63,0,0,1,18.65-17Z" style="fill:#ffc3bd"></path><path d="M304.3,142c25.76,9,39.81,50.54,39.81,50.54C341.5,200,327,204.71,318.37,203.88c0,0-26.16-29.48-29.75-42.23C285.29,149.85,292.57,137.84,304.3,142Z" style="fill:#263238"></path><path d="M314.07,200.34c1.7,2.82,3,4.89,5.52,5.45,2.57-.31,21.26-1.81,24.52-4.95s1.31-9.4-1-14.92C333.82,183.41,325.61,196.51,314.07,200.34Z" style="fill:#263238"></path><path d="M314.07,200.34c1.7,2.82,3,4.89,5.52,5.45,2.57-.31,21.26-1.81,24.52-4.95s1.31-9.4-1-14.92C333.82,183.41,325.61,196.51,314.07,200.34Z" style="fill:#fff;opacity:0.2"></path><path d="M316.11,223.58l3,6.64c.5,7.65-9.45,6.58-9.45,6.58l-5,1.42a3.87,3.87,0,0,1-4.41-2.36l-2.14-4.63a4,4,0,0,1,1.53-5.41l4.1-1.93a8,8,0,0,1,3.81-.75Z" style="fill:#ffc3bd"></path><path d="M289,192.64l-6.82-1.52a1.77,1.77,0,0,1-1.33-2.1h0a1.77,1.77,0,0,1,2.1-1.34l6.82,1.52a1.77,1.77,0,0,1,1.33,2.11h0A1.76,1.76,0,0,1,289,192.64Z" style="fill:#fff"></path><path d="M283.6,197.14l.28-8a2.11,2.11,0,0,1,2-2h0a1.89,1.89,0,0,1,1.89,2l-.28,8a2.11,2.11,0,0,1-2,2h0A1.89,1.89,0,0,1,283.6,197.14Z" style="fill:#fff"></path><path d="M293.41,139.63c-2.23,2.32-9.52,16.17-10.2,49.58a.46.46,0,0,0,.28.45,31,31,0,0,0,4.59,1.28.46.46,0,0,0,.56-.44c.21-4.51,1.92-35.85,9.87-49.59a.46.46,0,0,0-.26-.67,15,15,0,0,0-4.52-.74A.42.42,0,0,0,293.41,139.63Z" style="fill:#92E3A9"></path><path d="M241,407.7c-.77-7.58,2.53-27.22,2.53-27.22L222.29,379s2.37,25.45,0,28.26C219,409.6,210.13,411,210.13,411s-1.12,3-.44,5.21l30.64,0a1.91,1.91,0,0,0,1.86-2.36A47.85,47.85,0,0,1,241,407.7Z" style="fill:#263238"></path><path d="M310.19,407.7c-1.87-7.58-1.38-27.22-1.38-27.22L287.35,379s6,25.45,4.06,28.26a29.9,29.9,0,0,1-6.57,3.79,9.5,9.5,0,0,0,.3,5.21l24.24,0a2.26,2.26,0,0,0,2.17-2.48A58.52,58.52,0,0,0,310.19,407.7Z" style="fill:#263238"></path><path d="M222.08,244.11s-1,4.16.44,7.49c22.26,6,70.45,4,90.41-.26a14.65,14.65,0,0,0-1.24-7.42s-26.15,4.15-51.35,3.52S222.08,244.11,222.08,244.11Z" style="fill:#263238"></path><path d="M237.48,243.76c-1.37,3.67-.71,10.82,0,12.13,3.34,1.18,4.51.81,4.51.81s-1.08-8.9,0-12.33A11.45,11.45,0,0,0,237.48,243.76Z" style="fill:#92E3A9"></path><path d="M287,245.12c1.37,3.66.71,10.82,0,12.13-3.34,1.17-4.51.81-4.51.81s1.08-8.9,0-12.33A11.45,11.45,0,0,1,287,245.12Z" style="fill:#92E3A9"></path><path d="M283,102.62c-3.92-.17-14.36-3.14-14.36-3.14a7.22,7.22,0,0,1,3.08-1.17c-5.24.09-8,2.68-15.41,1.22,1.09-2,7-4.92,14.66-3.64A20.93,20.93,0,0,1,283,102.62Z" style="fill:#263238"></path><path d="M168.1,137.83c-4.25-2.89-4.81,1.38-4.81,1.38,0,21.79,14.77,254.38,16.12,275.5a1.5,1.5,0,0,0,1.34,1.53H183a1.47,1.47,0,0,0,1.27-1.7C182.84,392.31,168.05,159.57,168.1,137.83Z" style="fill:#92E3A9"></path><path d="M166.73,158.55a8.15,8.15,0,0,1-2.72-.32,1.34,1.34,0,0,1-.9-1.28c-.24-4.37-1.18-21.17-1.46-23.51-5.61.65-13.59,3.51-17.79-14.68s-4.52-39.87-5.87-46.9c5.08,4.77,7.67,25.12,9.47,35.45s4.33,15.06,8.36,14.9,7-3.7,5.39-16.61S155,67.22,153.52,62.33c4.95,2.14,11.51,25.2,13.53,44.45s8,15.12,11.08,11.73-2.08-40.5-3.87-48.28c4.61,7.53,6,15.55,8.15,31.1s6,31.48-13.63,31.23c.39,4.48,1.14,19.72,1.35,24.18a1.28,1.28,0,0,1-.93,1.41Z" style="fill:#92E3A9"></path><path d="M166.73,158.55a8.15,8.15,0,0,1-2.72-.32,1.34,1.34,0,0,1-.9-1.28c-.24-4.37-1.18-21.17-1.46-23.51-5.61.65-13.59,3.51-17.79-14.68s-4.52-39.87-5.87-46.9c5.08,4.77,7.67,25.12,9.47,35.45s4.33,15.06,8.36,14.9,7-3.7,5.39-16.61S155,67.22,153.52,62.33c4.95,2.14,11.51,25.2,13.53,44.45s8,15.12,11.08,11.73-2.08-40.5-3.87-48.28c4.61,7.53,6,15.55,8.15,31.1s6,31.48-13.63,31.23c.39,4.48,1.14,19.72,1.35,24.18a1.28,1.28,0,0,1-.93,1.41Z" style="fill:#fff;opacity:0.6000000000000001"></path></g></svg>